<svg
  xmlns="http://www.w3.org/2000/svg"
  viewBox="0 0 1500 1100"
  width="100%"
  height="100%">
  <style>
    path {
      fill: white;
    }
  </style>

  <g>
    <path d="M 200 125
             L 600 125
             A 5 5 0 0 1 600 275
             L 200 275
             A 5 5 0 0 1 200 125 Z"/>

    <path d="M 200 825
             L 600 825
             A 5 5 0 0 1 600 975
             L 200 975
             A 5 5 0 0 1 200 825 Z"/>

    <path d="M 525 900
             L 525 500
             A 5 5 0 0 1 675 500
             L 675 900
             A 5 5 0 0 1 525 900 Z"/>
  </g>

  <g>
    <path d="M 900 125
             L 1300 125
             A 5 5 0 0 1 1300 275
             L 900 275
             A 5 5 0 0 1 900 125 Z"/>

    <path d="M 900 425
             L 1300 425
             A 5 5 0 0 1 1300 575
             L 900 575
             A 5 5 0 0 1 900 425 Z"/>

    <path d="M 825 900
             L 825 500
             A 5 5 0 0 1 975 500
             L 975 900
             A 5 5 0 0 1 825 900 Z"/>
  </g>
</svg>
