<svg
  xmlns="http://www.w3.org/2000/svg"
  viewBox="0 0 4400 2475"
  width="100%"
  height="100%">
    <defs>
      <linearGradient id="g1" x1="0%" x2="100%" y1="0%" y2="0%">
        <stop offset="0%" stop-color="#FFD567" />
        <stop offset="100%" stop-color="#FE8A4F" />
      </linearGradient>
      <linearGradient id="g2" x1="0%" x2="100%" y1="0%" y2="0%" gradientTransform="rotate(55)">
        <stop offset="0%" stop-color="#F690FF" />
        <stop offset="50%" stop-color="#AC71FF" />
        <stop offset="85%" stop-color="#7543E3" />
      </linearGradient>
      <linearGradient id="g3" x1="0%" x2="100%" y1="0%" y2="50%">
        <stop offset="0%" stop-color="#E02950" />
        <stop offset="100%" stop-color="#C60184" />
      </linearGradient>
      <!--
      <linearGradient id="g3" x1="0%" x2="100%" y1="0%" y2="50%">
        <stop offset="0%" stop-color="#53FEBE" />
        <stop offset="100%" stop-color="#068989" />
      </linearGradient>
      -->
      <linearGradient id="g4" x1="0%" x2="100%" y1="0%" y2="125%">
        <stop offset="0%" stop-color="#073072" />
        <stop offset="100%" stop-color="#80EAFF" />
      </linearGradient>
      <linearGradient id="g5" gradientTransform="rotate(45)">
        <stop offset="0%" stop-color="#00DDFF" />
        <stop offset="100%" stop-color="#0250BC" />
      </linearGradient>
    </defs>

    <path d="M 0 0
             L 2800 0
             L 2800 1100
             L 0 1100
             Z"
          fill="url(#g1)" />

    <path d="M 0 500
             C 600 200 800 800 1600 1400
             L 0 1400
             Z"
          fill="url(#g2)" />

    <path d="M 2400 500
             C 2600 375 2700 125 2800 0
             L 4400 0
             L 4400 500
             Z"
          fill="url(#g3)" />

    <path d="M 0 1400
             C 1400 1000 1600 0 2500 200
             C 3400 400 4000 600 4400 100
             L 4400 1700
             C 4000 2000 3400 1600 2500 1400
             C 1600 1200 400 2000 0 2400
             Z"
          fill="url(#g4)" />

    <!--
    <path d="M 3600 1100
             C 3800 600 4000 500 4400 800
             L 4400 1400
             C 4000 1700 3800 1600 3600 1100
             "
          fill="url(#g5)" />
      -->

    <circle r="300" cx="3400" cy="900" fill="url(#g5)" />
    <circle r="150" cx="4000" cy="1000" fill="url(#g5)" />
    <circle r="100" cx="3000" cy="1100" fill="url(#g5)" />
</svg>
